<?xml version="1.0" encoding="utf-8"?>
<!-- Generator: Adobe Illustrator 24.1.1, SVG Export Plug-In . SVG Version: 6.00 Build 0)  -->
<svg version="1.1" id="레이어_1" xmlns="http://www.w3.org/2000/svg" xmlns:xlink="http://www.w3.org/1999/xlink" x="0px"
	 y="0px" viewBox="0 0 841.89 768.45" style="enable-background:new 0 0 841.89 768.45;" xml:space="preserve">
<style type="text/css">
	.st0{fill:#9FA0A0;}
	.st1{fill:#FFFFFF;}
	.st2{font-family:'NotoSansCJKkr-Regular-KSCpc-EUC-H';}
	.st3{font-size:13.862px;}
	.st4{fill:#595757;}
	.st5{fill:#727171;}
	.st6{fill:#F98CE3;}
	.st7{fill:#816BC5;}
	.st8{fill:#A89722;}
	.st9{fill:#FF4E4E;}
	.st10{fill:#40BE7B;}
	.st11{fill:none;stroke:#6D72FF;stroke-miterlimit:10;}
	.st12{fill:none;stroke:#898989;stroke-miterlimit:10;}
	.st13{fill:#898989;}
	.st14{fill:none;stroke:#9FA0A0;stroke-miterlimit:10;stroke-dasharray:5.058,5.058;}
	.st15{fill:none;stroke:#898989;stroke-miterlimit:10;stroke-dasharray:4.2854,4.2854;}
	.st16{fill:none;stroke:#898989;stroke-miterlimit:10;stroke-dasharray:4.767,4.767;}
	.st17{fill:none;stroke:#898989;stroke-miterlimit:10;stroke-dasharray:4.8408,4.8408;}
</style>
<path class="st0" d="M164.88,127.56H95.07c-5.54,0-10.04-4.49-10.04-10.04v-9.94c0-5.54,4.49-10.04,10.04-10.04h69.81
	c5.54,0,10.04,4.49,10.04,10.04v9.94C174.92,123.06,170.43,127.56,164.88,127.56z"/>
<text transform="matrix(1 0 0 1 102.5315 117.4565)" class="st1 st2 st3">어플 실행</text>
<path class="st4" d="M164.84,547.32H95.03c-5.54,0-10.04-4.49-10.04-10.04v-9.94c0-5.54,4.49-10.04,10.04-10.04h69.81
	c5.54,0,10.04,4.49,10.04,10.04v9.94C174.87,542.83,170.38,547.32,164.84,547.32z"/>
<text transform="matrix(1 0 0 1 110.8014 537.2241)" class="st1 st2 st3">프로필</text>
<path class="st4" d="M164.84,458.88H95.03c-5.54,0-10.04-4.49-10.04-10.04v-9.94c0-5.54,4.49-10.04,10.04-10.04h69.81
	c5.54,0,10.04,4.49,10.04,10.04v9.94C174.88,454.38,170.38,458.88,164.84,458.88z"/>
<text transform="matrix(1 0 0 1 98.0504 448.7769)" class="st1 st2 st3">위시리스트</text>
<path class="st4" d="M164.84,370.43H95.03c-5.54,0-10.04-4.49-10.04-10.04v-9.94c0-5.54,4.49-10.04,10.04-10.04h69.81
	c5.54,0,10.04,4.49,10.04,10.04v9.94C174.88,365.94,170.38,370.43,164.84,370.43z"/>
<text transform="matrix(1 0 0 1 123.5563 360.3296)" class="st1 st2 st3">홈</text>
<path class="st4" d="M164.84,724.22H95.03c-5.54,0-10.04-4.49-10.04-10.04v-9.94c0-5.54,4.49-10.04,10.04-10.04h69.81
	c5.54,0,10.04,4.49,10.04,10.04v9.94C174.87,719.72,170.38,724.22,164.84,724.22z"/>
<text transform="matrix(1 0 0 1 110.8014 714.1179)" class="st1 st2 st3">메시지</text>
<path class="st4" d="M164.84,635.77H95.03c-5.54,0-10.04-4.49-10.04-10.04v-9.94c0-5.54,4.49-10.04,10.04-10.04h69.81
	c5.54,0,10.04,4.49,10.04,10.04v9.94C174.88,631.28,170.38,635.77,164.84,635.77z"/>
<text transform="matrix(1 0 0 1 104.4274 625.6707)" class="st1 st2 st3">예약내역</text>
<path class="st0" d="M310.29,370.43h-69.81c-5.54,0-10.04-4.49-10.04-10.04v-9.94c0-5.54,4.49-10.04,10.04-10.04h69.81
	c5.54,0,10.04,4.49,10.04,10.04v9.94C320.33,365.94,315.84,370.43,310.29,370.43z"/>
<text transform="matrix(1 0 0 1 249.8824 360.3296)" class="st1 st2 st3">여행시작</text>
<path class="st5" d="M437.13,370.43h-69.81c-5.54,0-10.04-4.49-10.04-10.04v-9.94c0-5.54,4.49-10.04,10.04-10.04h69.81
	c5.54,0,10.04,4.49,10.04,10.04v9.94C447.16,365.94,442.67,370.43,437.13,370.43z"/>
<text transform="matrix(1 0 0 1 389.4684 360.3296)" class="st1 st2 st3">도시</text>
<path class="st5" d="M437.13,419.56h-69.81c-5.54,0-10.04-4.49-10.04-10.04v-9.94c0-5.54,4.49-10.04,10.04-10.04h69.81
	c5.54,0,10.04,4.49,10.04,10.04v9.94C447.16,415.07,442.67,419.56,437.13,419.56z"/>
<text transform="matrix(1 0 0 1 389.4684 409.4604)" class="st1 st2 st3">테마</text>
<path class="st6" d="M564.13,419.56h-69.81c-5.54,0-10.04-4.49-10.04-10.04v-9.94c0-5.54,4.49-10.04,10.04-10.04h69.81
	c5.54,0,10.04,4.49,10.04,10.04v9.94C574.16,415.07,569.67,419.56,564.13,419.56z"/>
<text transform="matrix(1 0 0 1 516.4694 409.4604)" class="st1 st2 st3">음식</text>
<path class="st7" d="M564.13,471.44h-69.81c-5.54,0-10.04-4.49-10.04-10.04v-9.94c0-5.54,4.49-10.04,10.04-10.04h69.81
	c5.54,0,10.04,4.49,10.04,10.04v9.94C574.16,466.94,569.67,471.44,564.13,471.44z"/>
<text transform="matrix(1 0 0 1 516.4694 461.3354)" class="st1 st2 st3">명소</text>
<path class="st8" d="M564.13,523.31h-69.81c-5.54,0-10.04-4.49-10.04-10.04v-9.94c0-5.54,4.49-10.04,10.04-10.04h69.81
	c5.54,0,10.04,4.49,10.04,10.04v9.94C574.16,518.82,569.67,523.31,564.13,523.31z"/>
<text transform="matrix(1 0 0 1 516.4694 513.2104)" class="st1 st2 st3">문화</text>
<path class="st9" d="M564.13,575.19h-69.81c-5.54,0-10.04-4.49-10.04-10.04v-9.94c0-5.54,4.49-10.04,10.04-10.04h69.81
	c5.54,0,10.04,4.49,10.04,10.04v9.94C574.16,570.69,569.67,575.19,564.13,575.19z"/>
<text transform="matrix(1 0 0 1 503.7164 565.0854)" class="st1 st2 st3">액티비티</text>
<path class="st10" d="M564.13,627.06h-69.81c-5.54,0-10.04-4.49-10.04-10.04v-9.94c0-5.54,4.49-10.04,10.04-10.04h69.81
	c5.54,0,10.04,4.49,10.04,10.04v9.94C574.16,622.57,569.67,627.06,564.13,627.06z"/>
<text transform="matrix(1 0 0 1 516.4694 616.9604)" class="st1 st2 st3">휴식</text>
<path class="st0" d="M564.13,319.05h-69.81c-5.54,0-10.04-4.49-10.04-10.04v-9.94c0-5.54,4.49-10.04,10.04-10.04h69.81
	c5.54,0,10.04,4.49,10.04,10.04v9.94C574.16,314.56,569.67,319.05,564.13,319.05z"/>
<text transform="matrix(1 0 0 1 516.4684 308.9497)" class="st1 st2 st3">검색</text>
<path class="st0" d="M564.13,370.93h-69.81c-5.54,0-10.04-4.49-10.04-10.04v-9.94c0-5.54,4.49-10.04,10.04-10.04h69.81
	c5.54,0,10.04,4.49,10.04,10.04v9.94C574.16,366.43,569.67,370.93,564.13,370.93z"/>
<text transform="matrix(1 0 0 1 503.7155 360.8247)" class="st1 st2 st3">인기지역</text>
<path class="st0" d="M685.07,163.43h-69.81c-5.54,0-10.04-4.49-10.04-10.04v-9.94c0-5.54,4.49-10.04,10.04-10.04h69.81
	c5.54,0,10.04,4.49,10.04,10.04v9.94C695.1,158.93,690.61,163.43,685.07,163.43z"/>
<text transform="matrix(1 0 0 1 631.0319 153.3247)" class="st1 st2 st3">아시아</text>
<path class="st0" d="M685.07,215.3h-69.81c-5.54,0-10.04-4.49-10.04-10.04v-9.94c0-5.54,4.49-10.04,10.04-10.04h69.81
	c5.54,0,10.04,4.49,10.04,10.04v9.94C695.1,210.81,690.61,215.3,685.07,215.3z"/>
<text transform="matrix(1 0 0 1 637.4088 205.1997)" class="st1 st2 st3">유럽</text>
<path class="st0" d="M821.13,241.24h-69.81c-5.54,0-10.04-4.49-10.04-10.04v-9.94c0-5.54,4.49-10.04,10.04-10.04h69.81
	c5.54,0,10.04,4.49,10.04,10.04v9.94C831.17,236.74,826.67,241.24,821.13,241.24z"/>
<text transform="matrix(1 0 0 1 773.4727 231.1373)" class="st1 st2 st3">날짜</text>
<path class="st0" d="M685.07,267.18h-69.81c-5.54,0-10.04-4.49-10.04-10.04v-9.94c0-5.54,4.49-10.04,10.04-10.04h69.81
	c5.54,0,10.04,4.49,10.04,10.04v9.94C695.1,262.68,690.61,267.18,685.07,267.18z"/>
<text transform="matrix(1 0 0 1 631.0319 257.0747)" class="st1 st2 st3">동남아</text>
<path class="st0" d="M685.07,319.05h-69.81c-5.54,0-10.04-4.49-10.04-10.04v-9.94c0-5.54,4.49-10.04,10.04-10.04h69.81
	c5.54,0,10.04,4.49,10.04,10.04v9.94C695.1,314.56,690.61,319.05,685.07,319.05z"/>
<text transform="matrix(1 0 0 1 634.401 308.9497)" class="st1 st2 st3">etc...</text>
<path class="st11" d="M599.17,236.72"/>
<path class="st11" d="M599.17,236.72"/>
<g>
	<g>
		<line class="st12" x1="129.98" y1="127.56" x2="129.98" y2="180.64"/>
		<g>
			<path class="st13" d="M129.98,186.68c-1.05-2.84-2.85-6.36-4.76-8.55l4.76,1.72l4.75-1.72
				C132.83,180.32,131.03,183.84,129.98,186.68z"/>
		</g>
	</g>
</g>
<path class="st0" d="M164.88,299.63H95.07c-5.54,0-10.04-4.49-10.04-10.04v-9.94c0-5.54,4.49-10.04,10.04-10.04h69.81
	c5.54,0,10.04,4.49,10.04,10.04v9.94C174.92,295.14,170.42,299.63,164.88,299.63z"/>
<text transform="matrix(1 0 0 1 117.2229 289.5332)" class="st1 st2 st3">시작</text>
<g>
	<path class="st14" d="M320.97,216.69h-69.81c-5.54,0-10.04-4.49-10.04-10.04v-9.94c0-5.54,4.49-10.04,10.04-10.04h69.81
		c5.54,0,10.04,4.49,10.04,10.04v9.94C331,212.2,326.51,216.69,320.97,216.69z"/>
</g>
<text transform="matrix(1 0 0 1 260.5549 206.5947)" class="st13 st2 st3">회원가입</text>
<path class="st0" d="M190.05,216.69H69.91c-5.54,0-10.04-4.49-10.04-10.04v-9.94c0-5.54,4.49-10.04,10.04-10.04h120.14
	c5.54,0,10.04,4.49,10.04,10.04v9.94C200.09,212.2,195.59,216.69,190.05,216.69z"/>
<text transform="matrix(1 0 0 1 73.1438 206.5947)" class="st1 st2 st3">로그인 / 간편로그인</text>
<line class="st12" x1="447.16" y1="404.55" x2="484.28" y2="404.55"/>
<polyline class="st12" points="465.72,404.55 465.72,612.05 484.28,612.05 "/>
<line class="st12" x1="484.28" y1="560.18" x2="465.72" y2="560.18"/>
<line class="st12" x1="465.72" y1="508.3" x2="484.28" y2="508.3"/>
<line class="st12" x1="465.72" y1="456.43" x2="484.28" y2="456.43"/>
<polyline class="st12" points="695.1,148.42 715.28,148.42 715.28,304.04 695.1,304.04 "/>
<line class="st12" x1="695.1" y1="252.17" x2="715.28" y2="252.17"/>
<line class="st12" x1="695.1" y1="200.29" x2="715.28" y2="200.29"/>
<path class="st12" d="M715.28,226.23"/>
<g>
	<g>
		<polyline class="st12" points="401.22,425.6 401.22,669.61 786.23,669.61 786.23,241.4 		"/>
		<g>
			<path class="st13" d="M401.22,419.56c-1.05,2.84-2.85,6.36-4.76,8.55l4.76-1.72l4.75,1.72
				C404.07,425.92,402.27,422.4,401.22,419.56z"/>
		</g>
	</g>
</g>
<g>
	<g>
		<line class="st12" x1="129.98" y1="216.69" x2="129.98" y2="263.58"/>
		<g>
			<path class="st13" d="M129.98,269.62c-1.05-2.84-2.85-6.36-4.76-8.55l4.76,1.72l4.75-1.72
				C132.83,263.25,131.03,266.78,129.98,269.62z"/>
		</g>
	</g>
</g>
<g>
	<g>
		<line class="st12" x1="200.09" y1="201.69" x2="202.59" y2="201.69"/>
		<line class="st15" x1="206.87" y1="201.69" x2="230.44" y2="201.69"/>
		<line class="st12" x1="232.58" y1="201.69" x2="235.08" y2="201.69"/>
		<g>
			<path class="st13" d="M241.12,201.69c-2.84,1.05-6.36,2.85-8.55,4.76l1.72-4.76l-1.72-4.75
				C234.76,198.84,238.28,200.63,241.12,201.69z"/>
		</g>
	</g>
</g>
<g>
	<g>
		<line class="st12" x1="180.95" y1="284.63" x2="183.45" y2="284.63"/>
		<line class="st16" x1="188.22" y1="284.63" x2="281.18" y2="284.63"/>
		<polyline class="st12" points="283.56,284.63 286.06,284.63 286.06,282.13 		"/>
		<line class="st17" x1="286.06" y1="277.28" x2="286.06" y2="221.62"/>
		<line class="st12" x1="286.06" y1="219.19" x2="286.06" y2="216.69"/>
		<g>
			<path class="st13" d="M174.92,284.63c2.84,1.05,6.36,2.85,8.55,4.76l-1.72-4.76l1.72-4.75
				C181.28,281.77,177.76,283.57,174.92,284.63z"/>
		</g>
	</g>
</g>
<g>
	<g>
		<line class="st12" x1="174.88" y1="355.42" x2="224.41" y2="355.42"/>
		<g>
			<path class="st13" d="M230.45,355.42c-2.84,1.05-6.36,2.85-8.55,4.76l1.72-4.76l-1.72-4.75
				C224.08,352.57,227.61,354.37,230.45,355.42z"/>
		</g>
	</g>
</g>
<g>
	<g>
		<line class="st12" x1="320.33" y1="355.42" x2="351.25" y2="355.42"/>
		<g>
			<path class="st13" d="M357.28,355.42c-2.84,1.05-6.36,2.85-8.55,4.76l1.72-4.76l-1.72-4.75
				C350.92,352.57,354.44,354.37,357.28,355.42z"/>
		</g>
	</g>
</g>
<g>
	<g>
		<polyline class="st12" points="338.81,355.42 338.81,404.55 351.25,404.55 		"/>
		<g>
			<path class="st13" d="M357.28,404.55c-2.84,1.05-6.36,2.85-8.55,4.76l1.72-4.76l-1.72-4.75
				C350.92,401.7,354.44,403.5,357.28,404.55z"/>
		</g>
	</g>
</g>
<g>
	<g>
		<line class="st12" x1="447.16" y1="354.89" x2="478.25" y2="354.89"/>
		<g>
			<path class="st13" d="M484.28,354.89c-2.84,1.05-6.36,2.85-8.55,4.76l1.72-4.76l-1.72-4.75
				C477.92,352.04,481.44,353.83,484.28,354.89z"/>
		</g>
	</g>
</g>
<g>
	<g>
		<polyline class="st12" points="465.72,354.89 465.72,304.04 478.25,304.04 		"/>
		<g>
			<path class="st13" d="M484.28,304.04c-2.84,1.05-6.36,2.85-8.55,4.76l1.72-4.76l-1.72-4.75
				C477.92,301.19,481.44,302.99,484.28,304.04z"/>
		</g>
	</g>
</g>
<line class="st12" x1="574.16" y1="304.04" x2="605.22" y2="304.04"/>
<polyline class="st12" points="589.69,304.04 589.69,148.42 605.22,148.42 "/>
<line class="st12" x1="589.69" y1="200.29" x2="605.22" y2="200.29"/>
<line class="st12" x1="589.69" y1="252.17" x2="605.22" y2="252.17"/>
<g>
	<g>
		<line class="st12" x1="735.25" y1="226.23" x2="715.28" y2="226.23"/>
		<g>
			<path class="st13" d="M741.28,226.23c-2.84-1.05-6.36-2.85-8.55-4.76l1.72,4.76l-1.72,4.75
				C734.92,229.08,738.44,227.28,741.28,226.23z"/>
		</g>
	</g>
</g>
<path class="st12" d="M129.97,299.63"/>
<line class="st12" x1="22.46" y1="620.76" x2="84.99" y2="620.76"/>
<line class="st12" x1="22.46" y1="532.32" x2="84.99" y2="532.32"/>
<line class="st12" x1="22.46" y1="443.87" x2="84.99" y2="443.87"/>
<line class="st12" x1="22.46" y1="355.92" x2="84.99" y2="355.92"/>
<polyline class="st12" points="84.99,284.13 22.46,284.13 22.46,709.21 84.99,709.21 "/>
</svg>
